# xmcd
#
# Track frame offsets: 
#        150
#        5425
#        10800
#        14775
#        23450
#        32587
#        40125
#        42027
#        46750
#        53175
#        58200
#        68400
#        85650
#        92850
#        97050
#        104250
#        107700
#        112950
#        118137
#        133350
#        137775
#        140025
#        144075
#        147890
#
# Disc length: 2076 seconds
#
# Revision: 4
# Processed by: cddbd v1.5.2PL0 Copyright (c) Steve Scherf et al.
# Submitted via: ExactAudioCopyFreeDBPlugin 1.0
#
DISCID=48081a18
DTITLE=D.R.I - Dealing With It
DYEAR=1985
DGENRE=Thrash Metal
TTITLE0=Snap
TTITLE1=I'd Rather Be Sleeping
TTITLE2=Marriage
TTITLE3=Yes Ma'am
TTITLE4=Soup Kitchen
TTITLE5=Mad Man
TTITLE6=Stupid, Stupid War
TTITLE7=Counter Attack
TTITLE8=Couch Slouch
TTITLE9=God Is Broke
TTITLE10=Karma
TTITLE11=Nursing Home Blues
TTITLE12=I Don't Need Society
TTITLE13=Give My Taxes Back
TTITLE14=The Explorer
TTITLE15=Reagonomics
TTITLE16=How To Act
TTITLE17=Shame
TTITLE18=Argument Then War
TTITLE19=Evil Minds
TTITLE20=Slit My Wrist
TTITLE21=Busted Again
TTITLE22=Equal People
TTITLE23=On My Way Home
EXTD=
EXTT0=
EXTT1=
EXTT2=
EXTT3=
EXTT4=
EXTT5=
EXTT6=
EXTT7=
EXTT8=
EXTT9=
EXTT10=
EXTT11=
EXTT12=
EXTT13=
EXTT14=
EXTT15=
EXTT16=
EXTT17=
EXTT18=
EXTT19=
EXTT20=
EXTT21=
EXTT22=
EXTT23=
PLAYORDER=
